<?xml version="1.0" encoding="UTF-8" standalone="no"?>
<!-- Created with Inkscape (http://www.inkscape.org/) -->

<svg
   xmlns:dc="http://purl.org/dc/elements/1.1/"
   xmlns:cc="http://creativecommons.org/ns#"
   xmlns:rdf="http://www.w3.org/1999/02/22-rdf-syntax-ns#"
   xmlns:svg="http://www.w3.org/2000/svg"
   xmlns="http://www.w3.org/2000/svg"
   xmlns:sodipodi="http://sodipodi.sourceforge.net/DTD/sodipodi-0.dtd"
   xmlns:inkscape="http://www.inkscape.org/namespaces/inkscape"
   width="166.93188mm"
   height="84.177773mm"
   viewBox="0 0 166.93189 84.177772"
   version="1.1"
   id="svg8"
   inkscape:version="0.92.5 (2060ec1f9f, 2020-04-08)"
   sodipodi:docname="drawing.svg">
  <defs
     id="defs2" />
  <sodipodi:namedview
     id="base"
     pagecolor="#ffffff"
     bordercolor="#666666"
     borderopacity="1.0"
     inkscape:pageopacity="0.0"
     inkscape:pageshadow="2"
     inkscape:zoom="1"
     inkscape:cx="349.84362"
     inkscape:cy="181.81871"
     inkscape:document-units="mm"
     inkscape:current-layer="layer1"
     showgrid="false"
     inkscape:window-width="1719"
     inkscape:window-height="1335"
     inkscape:window-x="163"
     inkscape:window-y="74"
     inkscape:window-maximized="0"
     fit-margin-top="0"
     fit-margin-left="0"
     fit-margin-right="0"
     fit-margin-bottom="0" />
  <metadata
     id="metadata5">
    <rdf:RDF>
      <cc:Work
         rdf:about="">
        <dc:format>image/svg+xml</dc:format>
        <dc:type
           rdf:resource="http://purl.org/dc/dcmitype/StillImage" />
        <dc:title></dc:title>
      </cc:Work>
    </rdf:RDF>
  </metadata>
  <g
     inkscape:label="Layer 1"
     inkscape:groupmode="layer"
     id="layer1"
     transform="translate(-21.534053,-106.41113)">
    <path
       style="fill:#000000;stroke-width:0.33638278"
       d="m 88.092033,131.26527 c -0.497244,0.0322 -1.102606,0.36616 -1.761404,0.99798 -1.301944,1.24859 -1.340009,1.68598 -2.462703,7.19193 -0.137575,0.67473 -0.265449,1.06536 -0.58535,2.09828 -1.243869,3.56909 -1.827159,5.36334 -4.143693,7.00622 H 60.173359 c -1.644476,-0.11226 -3.21145,-0.12774 -4.374967,0 -0.283401,0.1087 -0.668867,-0.15667 -1.526201,2.04721 -0.857334,2.20386 -1.584264,4.00693 -1.614904,4.00703 -0.03064,8e-5 -0.01958,-4.80599 0.02492,-10.68016 0.04437,-5.87418 -0.0076,-11.01053 -0.116965,-11.41401 -0.161031,-0.59697 -0.561691,-0.94464 -0.993371,-0.96777 -0.259016,-0.0139 -0.529575,0.0894 -0.766075,0.32588 -0.282028,0.28201 -1.933369,6.59874 -3.800093,14.5354 -1.815818,7.72039 -3.368667,14.19995 -3.451179,14.39877 -0.08251,0.1988 -0.162138,-3.98183 -0.176733,-9.28995 -0.01678,-6.09926 -0.151483,-9.7283 -0.36595,-9.86087 -0.994719,-0.61477 -1.624605,0.31919 -3.517557,5.21524 l -1.946718,5.03458 -7.946367,0.09 -7.94704,0.09 -0.101837,0.88103 c -0.07526,0.64935 0.07552,0.92753 0.573527,1.05776 0.37171,0.0971 4.125944,0.18084 8.343237,0.18593 5.790558,0.008 7.837918,-0.0989 8.360959,-0.43428 0.403723,-0.25901 1.034779,-1.45029 1.513728,-2.85792 l 0.820567,-2.41316 0.16819,11.7136 0.168189,11.71362 h 0.837666 c 0.955699,0 0.856698,0.30864 3.470935,-10.76426 0.829924,-3.51519 2.167479,-9.11597 2.972916,-12.44615 l 1.464438,-6.05488 0.08938,9.46863 c 0.07552,8.00596 0.166448,9.49848 0.588682,9.66049 0.274678,0.10565 0.712589,0.11048 0.973016,0.0101 0.260426,-0.0999 1.635792,-3.12268 3.055694,-6.71714 0,0 1.669713,-3.93441 2.375029,-3.9801 0.09904,-0.006 1.036064,-0.0563 1.449347,-0.0795 2.077059,0.0454 18.415491,-0.008 21.533102,0.16687 0.0562,0.94513 -0.616487,3.06781 -2.882267,9.1625 -3.29981,8.87617 -3.994333,14.60553 -1.690423,13.93754 0.735981,-0.21336 1.018301,-0.92495 1.427644,-3.59574 0.342977,-2.23799 1.984427,-7.10581 4.552335,-13.49736 l 2.407895,-5.99248 1.370496,-0.33638 c 1.906751,-0.43842 3.172564,-0.69208 4.786229,-0.81664 2.506883,-0.16741 3.113644,-0.0267 3.371057,0.0854 0.324378,0.14119 1.224353,0.50823 0.446759,2.74242 -0.777606,2.23423 -2.82255,7.11486 -3.476797,9.30361 -0.654258,2.18874 -2.324327,6.26229 -4.604881,15.69612 -0.431235,1.78389 -0.692259,4.74449 -0.130201,6.38019 0.562034,1.63571 2.217939,2.19582 2.61715,1.94774 0.888367,-0.55209 -0.426494,-3.97912 -0.363065,-5.4413 0.06344,-1.46219 0.39509,-4.04621 1.343543,-7.86743 0.662777,-2.67025 4.011636,-13.51516 8.739538,-22.58396 6.604784,-12.66901 10.695694,-18.98474 9.450914,-20.87807 -0.6224,-0.94666 -2.07012,-4.43492 -4.18644,2.46826 -0.81908,2.67174 -2.30817,6.33287 -3.671789,9.24458 -3.763141,8.03539 -1.538397,5.96727 -9.404391,6.55431 -4.476283,0.4877 -4.704603,0.22402 -5.308537,-0.43755 0,0 -0.326649,-1.56852 1.856646,-7.82335 2.262069,-6.53227 2.770882,-6.03291 2.241917,-7.37721 -0.226074,-0.57462 -0.615037,-0.84417 -1.112281,-0.81205 z m 80.541097,0.28671 c -0.25902,-0.0139 -0.52955,0.0894 -0.76607,0.32588 -0.28202,0.28201 -1.93334,6.59874 -3.80006,14.5354 -1.81583,7.72039 -3.36871,14.19995 -3.45122,14.39877 -0.0825,0.1988 -0.16213,-3.98183 -0.17673,-9.28995 -0.0168,-6.09926 -0.15147,-9.7283 -0.36594,-9.86087 -0.49739,-0.30738 -1.55439,0.18047 -1.92041,1.2588 -0.37745,1.11205 -0.99359,2.51031 -1.59716,3.95644 -0.48846,1.17028 -1.06851,1.50499 -1.67798,1.68323 h -17.9393 c -2.45214,-0.0573 -3.87047,-0.0914 -3.94067,-0.20498 -0.37887,-0.61302 -1.69938,-0.34908 -3.04519,0.60837 -0.75647,0.53816 -2.77513,1.34811 -4.69162,1.88296 -8.87876,2.47777 -13.87718,5.51796 -11.84566,7.20397 0.31721,0.26325 1.09971,0.051 2.94335,-0.79825 2.84705,-1.31149 10.37161,-3.85131 11.41072,-3.85131 0.52531,0 0.68722,0.21777 0.68722,0.92505 0,0.69042 -0.79482,1.82094 -3.13519,4.45707 -5.11435,5.76071 -6.77516,8.32304 -11.58681,10.9101 -4.7173,2.53629 -8.53048,2.7232 -10.7281,0.5256 -0.97966,-0.97968 -1.05284,-1.29911 -0.96448,-4.20348 0.25901,-8.51815 8.23743,-19.27814 22.29389,-30.06617 1.98887,-1.5264 3.61612,-2.97392 3.61612,-3.21666 0,-0.78506 -0.72135,-1.16124 -1.8961,-1.13463 v 5.4e-4 c -1.17471,0.0266 -2.80232,0.45629 -4.61607,1.28245 -1.26934,0.57814 -3.04795,1.13849 -3.95249,1.24567 -0.90453,0.10718 -1.64512,0.27734 -1.64512,0.37843 0,0.10107 0.32215,0.52679 0.71547,0.94541 l 0.71482,0.76081 -1.13529,1.32846 c -8.43792,9.87031 -10.74131,13.02535 -13.24639,18.14757 -1.75037,3.57912 -2.39733,5.44563 -2.84546,8.20722 -0.874623,5.38983 0.3154,8.6301 3.83095,10.43246 1.36206,0.69871 2.60813,0.69725 5.74282,-0.006 2.80973,-0.63065 6.86434,-4.16233 14.04333,-10.26033 1.22402,-1.03971 2.3763,-1.90311 3.02284,-2.287 -0.0825,1.0456 -0.0318,2.28419 -1.28239,7.61709 -1.13855,5.71406 -1.71873,4.25057 -1.21814,6.13048 0.50059,1.87992 2.61171,3.68671 3.04727,1.90146 0,0 0.0754,-5.06226 0.51602,-7.64052 0.44062,-2.57824 0.51424,-2.94336 1.29637,-7.05982 0.78212,-4.11648 1.81133,-6.58006 2.28585,-7.50293 0.47451,-0.92286 1.75896,-2.62164 2.09122,-2.92232 0.56578,-0.51201 1.45916,-0.82087 3.51691,-1.00193 v -5.3e-4 c 1.46643,-0.0115 19.18869,-0.0959 19.51019,-0.32324 0.0319,-0.0101 0.0847,-0.0572 0.15177,-0.1314 0.0289,-0.0299 0.052,-0.062 0.0761,-0.094 0.49933,-0.59717 1.5492,-2.23444 1.5492,-2.23444 l 0.16819,11.71361 0.1682,11.71361 h 0.83767 c 0.9557,0 0.85668,0.30864 3.47092,-10.76426 0.82993,-3.5152 2.16748,-9.11597 2.97292,-12.44615 l 1.46444,-6.05489 0.0894,9.46865 c 0.0755,8.00596 0.16645,9.49846 0.58868,9.66049 0.27468,0.10565 0.71258,0.11086 0.97301,0.0102 0.26042,-0.0999 1.63579,-3.12268 3.05569,-6.71714 l 0.35544,-0.90075 h 9.48244 c 0,0 5.20286,-0.0835 5.93926,-0.12612 0.7364,-0.0426 0.67277,-2.25744 0.67277,-2.25744 -1.19352,0.0228 -2.73658,0.0282 -4.93208,0.0282 -4.32732,0 -12.13651,0.0891 -12.41988,0.19775 -0.20873,0.0801 -0.77102,1.13082 -1.3948,2.55769 -0.03,-0.0557 -0.0184,-4.82062 0.0257,-10.66044 0.0443,-5.87417 -0.008,-11.01054 -0.11697,-11.41402 -0.16102,-0.59697 -0.56169,-0.94463 -0.99337,-0.96775 z"
       id="path140"
       inkscape:connector-curvature="0"
       sodipodi:nodetypes="ccsccccccccccccccccccccccccccsccccccccccsccccccczzsccsscsssccccccccccccccccccccsscccccsccccsccccsccsccczczzzccccccccscccccccccscsccccccc" />
    <path
       style="fill:#000000;stroke-width:0.14167713"
       d="m 84.611988,190.31033 c -0.292208,-0.15426 -0.531291,-0.31212 -0.531291,-0.35081 0,-0.0387 0.255019,0.0598 0.566712,0.21878 0.311688,0.15902 0.566707,0.3197 0.566707,0.35708 0,0.0927 -0.0011,0.0923 -0.602128,-0.22505 z m 40.696762,-0.0298 c 0.039,-0.0416 0.77214,-0.53716 1.62928,-1.10139 6.82266,-4.49108 11.80235,-10.41722 15.05359,-17.9147 3.6644,-8.45024 4.15618,-19.07216 1.28893,-27.83956 -1.59237,-4.86907 -3.54846,-8.54149 -6.91441,-12.98126 -0.8436,-1.11273 -4.91106,-5.17541 -6.24037,-6.23304 -2.16171,-1.7199 -4.60189,-3.2722 -7.15469,-4.55139 -8.06378,-4.04071 -17.30185,-5.21906 -26.352356,-3.36136 -3.450687,0.70829 -7.700867,2.25817 -10.696221,3.90051 -2.019047,1.10703 -5.1344,3.22153 -6.729664,4.56765 -1.605042,1.35437 -4.252718,4.0425 -5.539946,5.62459 -2.965442,3.64473 -5.406801,8.18978 -6.919296,12.88159 -1.954079,6.0616 -2.44409,12.98576 -1.354323,19.13745 1.940885,10.95625 8.095355,20.41477 17.276745,26.55181 1.519328,1.01556 1.604051,1.11834 0.362102,0.43933 -2.744216,-1.50036 -6.192933,-4.11317 -8.975661,-6.80011 -7.169185,-6.92244 -11.607589,-15.63776 -13.091004,-25.70574 -0.411098,-2.79011 -0.441197,-9.05928 -0.05651,-11.7699 1.16032,-8.17601 3.958336,-14.94494 8.82424,-21.34752 6.402142,-8.42398 15.827836,-14.34368 26.229916,-16.4734 3.291706,-0.67394 5.525858,-0.89489 9.028978,-0.89295 5.85817,0.003 10.97359,0.95906 16.29287,3.04429 5.97114,2.34076 11.93795,6.37919 16.03385,10.85194 5.34056,5.83194 8.83543,12.12561 10.67112,19.21689 1.12911,4.36175 1.49779,7.72629 1.37891,12.58365 -0.2095,8.56018 -2.74381,16.43437 -7.57909,23.54852 -3.66118,5.38669 -8.40288,9.87397 -14.0159,13.26387 -1.54647,0.93398 -2.59932,1.51825 -2.45109,1.36023 z"
       id="path220"
       inkscape:connector-curvature="0"
       sodipodi:nodetypes="cscscccssssssccssscssccsscssssssc" />
  </g>
</svg>
